# xmcd
#
# Track frame offsets:
# 150
# 15430
# 31132
# 44930
# 60165
# 74855
# 91372
# 105347
# 121812
# 137070
# 152587
# 167200
# 182930
# 196637
# 210295
# 222090
#
# Disc length: 3178 seconds
#
#
# Revision: 1
# Processed by: cddbd v1.5.1PL0 Copyright (c) Steve Scherf et al.
# Submitted via: FreeRIP 2.70 
#
DISCID=d60c6810
DTITLE=Grupo Rodeio - Acústico
DYEAR=2001
DGENRE=National Folk
TTITLE0=Iguaria Campeira-Sina De Andejo
TTITLE1=Gritos De Liberdade-Gaúchos De Fato
TTITLE2=Meu Medo-Milonga Saudade
TTITLE3=Deus Gaúcho-Abram Cancha Pro Rio Grande
TTITLE4=Ao Trote Do Cavalo-Xote Na Chuva
TTITLE5=De Tranco E Vanera-Tu Não Sabe Cantá-"A Radia Que Tu Escuita"
TTITLE6=Cem Anos De Glória-Insana Guerra
TTITLE7=Candonga Das Candongueira-Bailanta Da Neca Maria-Tranco Manco
TTITLE8=Pensando-Marcas
TTITLE9=Escudos De Um Taura
TTITLE10=O Sonho Acabou-Diz Pra Mim
TTITLE11=Saudade Carga Pesada-Lendário Avô
TTITLE12=Lamentos
TTITLE13=Meus Pensamentos-Pra Que Lembrar
TTITLE14=Doce Madrugada-Tempo E Saudade
TTITLE15=Entenda-Noite Fria
EXTD=
EXTT0=
EXTT1=
EXTT2=
EXTT3=
EXTT4=
EXTT5=
EXTT6=
EXTT7=
EXTT8=
EXTT9=
EXTT10=
EXTT11=
EXTT12=
EXTT13=
EXTT14=
EXTT15=
PLAYORDER=
